<svg width="248" height="58" viewBox="0 0 248 58" fill="none" xmlns="http://www.w3.org/2000/svg">
<mask id="mask0_1_23" style="mask-type:alpha" maskUnits="userSpaceOnUse" x="0" y="0" width="248" height="58">
<g clip-path="url(#clip0_1_23)">
<path d="M0 0H247.64V33L222.64 58H0V0Z" fill="black"/>
</g>
</mask>
<g mask="url(#mask0_1_23)">
<rect width="247.64" height="58" fill="#298430"/>
</g>
<mask id="mask1_1_23" style="mask-type:alpha" maskUnits="userSpaceOnUse" x="1" y="1" width="246" height="56">
<g clip-path="url(#clip1_1_23)">
<path d="M1 1H246.64V32L221.64 57H1V1Z" fill="black"/>
</g>
</mask>
<g mask="url(#mask1_1_23)">
<rect x="1" y="1" width="245.64" height="56" fill="#2F3723"/>
</g>
<path d="M52.4015 27.4375H49.9128C49.8674 27.1155 49.7746 26.8295 49.6344 26.5795C49.4943 26.3258 49.3143 26.1098 49.0946 25.9318C48.8749 25.7538 48.6212 25.6174 48.3333 25.5227C48.0492 25.428 47.7405 25.3807 47.4071 25.3807C46.8049 25.3807 46.2802 25.5303 45.8333 25.8295C45.3863 26.125 45.0397 26.5568 44.7935 27.125C44.5473 27.6894 44.4242 28.375 44.4242 29.1818C44.4242 30.0114 44.5473 30.7083 44.7935 31.2727C45.0435 31.8371 45.392 32.2633 45.839 32.5511C46.2859 32.839 46.803 32.983 47.3901 32.983C47.7196 32.983 48.0246 32.9394 48.3049 32.8523C48.589 32.7652 48.8409 32.6383 49.0605 32.4716C49.2802 32.3011 49.4621 32.0947 49.606 31.8523C49.7537 31.6098 49.856 31.3333 49.9128 31.0227L52.4015 31.0341C52.3371 31.5682 52.1761 32.0833 51.9185 32.5795C51.6647 33.072 51.3219 33.5133 50.8901 33.9034C50.4621 34.2898 49.9507 34.5966 49.356 34.8239C48.7651 35.0473 48.0965 35.1591 47.3503 35.1591C46.3124 35.1591 45.3844 34.9242 44.5662 34.4545C43.7518 33.9848 43.1079 33.3049 42.6344 32.4148C42.1647 31.5246 41.9299 30.447 41.9299 29.1818C41.9299 27.9129 42.1685 26.8333 42.6458 25.9432C43.123 25.053 43.7708 24.375 44.589 23.9091C45.4071 23.4394 46.3276 23.2045 47.3503 23.2045C48.0246 23.2045 48.6496 23.2992 49.2253 23.4886C49.8049 23.678 50.3181 23.9545 50.7651 24.3182C51.2121 24.678 51.5757 25.1193 51.856 25.642C52.1401 26.1648 52.3219 26.7633 52.4015 27.4375ZM58.0634 35.1705C57.1808 35.1705 56.4176 34.983 55.7736 34.608C55.1335 34.2292 54.6391 33.7027 54.2907 33.0284C53.9422 32.3504 53.7679 31.5644 53.7679 30.6705C53.7679 29.7689 53.9422 28.9811 54.2907 28.3068C54.6391 27.6288 55.1335 27.1023 55.7736 26.7273C56.4176 26.3485 57.1808 26.1591 58.0634 26.1591C58.946 26.1591 59.7073 26.3485 60.3475 26.7273C60.9914 27.1023 61.4876 27.6288 61.8361 28.3068C62.1846 28.9811 62.3588 29.7689 62.3588 30.6705C62.3588 31.5644 62.1846 32.3504 61.8361 33.0284C61.4876 33.7027 60.9914 34.2292 60.3475 34.608C59.7073 34.983 58.946 35.1705 58.0634 35.1705ZM58.0748 33.2955C58.4763 33.2955 58.8115 33.1818 59.0804 32.9545C59.3494 32.7235 59.552 32.4091 59.6884 32.0114C59.8285 31.6136 59.8986 31.161 59.8986 30.6534C59.8986 30.1458 59.8285 29.6932 59.6884 29.2955C59.552 28.8977 59.3494 28.5833 59.0804 28.3523C58.8115 28.1212 58.4763 28.0057 58.0748 28.0057C57.6694 28.0057 57.3285 28.1212 57.052 28.3523C56.7793 28.5833 56.5729 28.8977 56.4327 29.2955C56.2963 29.6932 56.2282 30.1458 56.2282 30.6534C56.2282 31.161 56.2963 31.6136 56.4327 32.0114C56.5729 32.4091 56.7793 32.7235 57.052 32.9545C57.3285 33.1818 57.6694 33.2955 58.0748 33.2955ZM66.3532 29.9545V35H63.9327V26.2727H66.2395V27.8125H66.3418C66.535 27.3049 66.8588 26.9034 67.3134 26.608C67.7679 26.3087 68.3191 26.1591 68.9668 26.1591C69.5729 26.1591 70.1013 26.2917 70.552 26.5568C71.0028 26.822 71.3532 27.2008 71.6032 27.6932C71.8532 28.1818 71.9782 28.7652 71.9782 29.4432V35H69.5577V29.875C69.5615 29.3409 69.4251 28.9242 69.1486 28.625C68.8721 28.322 68.4914 28.1705 68.0066 28.1705C67.6808 28.1705 67.3929 28.2405 67.1429 28.3807C66.8967 28.5208 66.7035 28.7254 66.5634 28.9943C66.427 29.2595 66.3569 29.5795 66.3532 29.9545ZM76.3063 29.9545V35H73.8858V23.3636H76.2381V27.8125H76.3404C76.5373 27.2973 76.8555 26.8939 77.2949 26.6023C77.7343 26.3068 78.2855 26.1591 78.9483 26.1591C79.5544 26.1591 80.0828 26.2917 80.5336 26.5568C80.9881 26.8182 81.3404 27.1951 81.5904 27.6875C81.8442 28.1761 81.9692 28.7614 81.9654 29.4432V35H79.5449V29.875C79.5487 29.3371 79.4123 28.9186 79.1358 28.6193C78.8631 28.3201 78.4805 28.1705 77.9881 28.1705C77.6586 28.1705 77.3669 28.2405 77.1131 28.3807C76.8631 28.5208 76.6661 28.7254 76.5222 28.9943C76.382 29.2595 76.3101 29.5795 76.3063 29.9545ZM87.8475 35.1705C86.9498 35.1705 86.177 34.9886 85.5293 34.625C84.8854 34.2576 84.3891 33.7386 84.0407 33.0682C83.6922 32.3939 83.5179 31.5966 83.5179 30.6761C83.5179 29.7784 83.6922 28.9905 84.0407 28.3125C84.3891 27.6345 84.8797 27.1061 85.5123 26.7273C86.1486 26.3485 86.8948 26.1591 87.7509 26.1591C88.3266 26.1591 88.8626 26.2519 89.3588 26.4375C89.8588 26.6193 90.2944 26.8939 90.6657 27.2614C91.0407 27.6288 91.3323 28.0909 91.5407 28.6477C91.749 29.2008 91.8532 29.8485 91.8532 30.5909V31.2557H84.4838V29.7557H89.5748C89.5748 29.4072 89.499 29.0985 89.3475 28.8295C89.196 28.5606 88.9857 28.3504 88.7168 28.1989C88.4516 28.0436 88.1429 27.9659 87.7907 27.9659C87.4232 27.9659 87.0975 28.0511 86.8134 28.2216C86.5331 28.3883 86.3134 28.6136 86.1543 28.8977C85.9952 29.178 85.9138 29.4905 85.91 29.8352V31.2614C85.91 31.6932 85.9895 32.0663 86.1486 32.3807C86.3115 32.6951 86.5407 32.9375 86.8361 33.108C87.1316 33.2784 87.4819 33.3636 87.8873 33.3636C88.1562 33.3636 88.4024 33.3258 88.6259 33.25C88.8494 33.1742 89.0407 33.0606 89.1998 32.9091C89.3588 32.7576 89.4801 32.572 89.5634 32.3523L91.802 32.5C91.6884 33.0379 91.4554 33.5076 91.1032 33.9091C90.7547 34.3068 90.3039 34.6174 89.7509 34.8409C89.2016 35.0606 88.5672 35.1705 87.8475 35.1705ZM97.3759 35.1705C96.4819 35.1705 95.713 34.9811 95.0691 34.6023C94.4289 34.2197 93.9365 33.6894 93.5918 33.0114C93.2509 32.3333 93.0804 31.553 93.0804 30.6705C93.0804 29.7765 93.2528 28.9924 93.5975 28.3182C93.946 27.6402 94.4403 27.1117 95.0804 26.733C95.7206 26.3504 96.4819 26.1591 97.3645 26.1591C98.1259 26.1591 98.7926 26.2973 99.3645 26.5739C99.9365 26.8504 100.389 27.2386 100.722 27.7386C101.056 28.2386 101.24 28.8258 101.274 29.5H98.9895C98.9251 29.0644 98.7547 28.714 98.4782 28.4489C98.2054 28.1799 97.8475 28.0455 97.4043 28.0455C97.0293 28.0455 96.7016 28.1477 96.4213 28.3523C96.1448 28.553 95.9289 28.8466 95.7736 29.233C95.6183 29.6193 95.5407 30.0871 95.5407 30.6364C95.5407 31.1932 95.6164 31.6667 95.7679 32.0568C95.9232 32.447 96.141 32.7443 96.4213 32.9489C96.7016 33.1534 97.0293 33.2557 97.4043 33.2557C97.6808 33.2557 97.9289 33.1989 98.1486 33.0852C98.3721 32.9716 98.5558 32.8068 98.6998 32.5909C98.8475 32.3712 98.9441 32.108 98.9895 31.8011H101.274C101.236 32.4678 101.054 33.0549 100.728 33.5625C100.406 34.0663 99.9611 34.4602 99.3929 34.7443C98.8248 35.0284 98.1524 35.1705 97.3759 35.1705ZM96.8077 34.9545H97.9213L97.8304 35.4489C98.2206 35.5095 98.5388 35.6553 98.785 35.8864C99.035 36.1174 99.1619 36.4318 99.1657 36.8295C99.1694 37.3939 98.9081 37.8428 98.3816 38.1761C97.8551 38.5133 97.1164 38.6818 96.1657 38.6818L96.1429 37.6023C96.6202 37.6023 96.9933 37.5436 97.2623 37.4261C97.535 37.3125 97.677 37.1345 97.6884 36.892C97.696 36.661 97.6069 36.4848 97.4213 36.3636C97.2357 36.2424 96.946 36.1572 96.552 36.108L96.8077 34.9545ZM105.312 35.1648C104.755 35.1648 104.259 35.0682 103.823 34.875C103.388 34.678 103.043 34.3883 102.789 34.0057C102.539 33.6193 102.414 33.1383 102.414 32.5625C102.414 32.0777 102.503 31.6705 102.681 31.3409C102.859 31.0114 103.102 30.7462 103.409 30.5455C103.715 30.3447 104.064 30.1932 104.454 30.0909C104.848 29.9886 105.261 29.9167 105.693 29.875C106.2 29.822 106.609 29.7727 106.92 29.7273C107.231 29.678 107.456 29.6061 107.596 29.5114C107.736 29.4167 107.806 29.2765 107.806 29.0909V29.0568C107.806 28.697 107.693 28.4186 107.465 28.2216C107.242 28.0246 106.924 27.9261 106.511 27.9261C106.075 27.9261 105.729 28.0227 105.471 28.2159C105.213 28.4053 105.043 28.6439 104.96 28.9318L102.721 28.75C102.835 28.2197 103.058 27.7614 103.392 27.375C103.725 26.9848 104.155 26.6856 104.681 26.4773C105.212 26.2652 105.825 26.1591 106.522 26.1591C107.007 26.1591 107.471 26.2159 107.914 26.3295C108.361 26.4432 108.757 26.6193 109.102 26.858C109.45 27.0966 109.725 27.4034 109.926 27.7784C110.126 28.1496 110.227 28.5947 110.227 29.1136V35H107.931V33.7898H107.863C107.723 34.0625 107.535 34.303 107.301 34.5114C107.066 34.7159 106.784 34.8769 106.454 34.9943C106.124 35.108 105.744 35.1648 105.312 35.1648ZM106.005 33.4943C106.361 33.4943 106.676 33.4242 106.948 33.2841C107.221 33.1402 107.435 32.947 107.59 32.7045C107.746 32.4621 107.823 32.1875 107.823 31.8807V30.9545C107.748 31.0038 107.643 31.0492 107.511 31.0909C107.382 31.1288 107.236 31.1648 107.073 31.1989C106.91 31.2292 106.748 31.2576 106.585 31.2841C106.422 31.3068 106.274 31.3277 106.142 31.3466C105.857 31.3883 105.609 31.4545 105.397 31.5455C105.185 31.6364 105.02 31.7595 104.903 31.9148C104.785 32.0663 104.727 32.2557 104.727 32.483C104.727 32.8125 104.846 33.0644 105.085 33.2386C105.327 33.4091 105.634 33.4943 106.005 33.4943ZM119.751 35.1705C118.868 35.1705 118.105 34.983 117.461 34.608C116.821 34.2292 116.327 33.7027 115.978 33.0284C115.63 32.3504 115.455 31.5644 115.455 30.6705C115.455 29.7689 115.63 28.9811 115.978 28.3068C116.327 27.6288 116.821 27.1023 117.461 26.7273C118.105 26.3485 118.868 26.1591 119.751 26.1591C120.633 26.1591 121.395 26.3485 122.035 26.7273C122.679 27.1023 123.175 27.6288 123.524 28.3068C123.872 28.9811 124.046 29.7689 124.046 30.6705C124.046 31.5644 123.872 32.3504 123.524 33.0284C123.175 33.7027 122.679 34.2292 122.035 34.608C121.395 34.983 120.633 35.1705 119.751 35.1705ZM119.762 33.2955C120.164 33.2955 120.499 33.1818 120.768 32.9545C121.037 32.7235 121.24 32.4091 121.376 32.0114C121.516 31.6136 121.586 31.161 121.586 30.6534C121.586 30.1458 121.516 29.6932 121.376 29.2955C121.24 28.8977 121.037 28.5833 120.768 28.3523C120.499 28.1212 120.164 28.0057 119.762 28.0057C119.357 28.0057 119.016 28.1212 118.74 28.3523C118.467 28.5833 118.26 28.8977 118.12 29.2955C117.984 29.6932 117.916 30.1458 117.916 30.6534C117.916 31.161 117.984 31.6136 118.12 32.0114C118.26 32.4091 118.467 32.7235 118.74 32.9545C119.016 33.1818 119.357 33.2955 119.762 33.2955ZM132.882 28.7614L130.666 28.8977C130.628 28.7083 130.546 28.5379 130.421 28.3864C130.296 28.2311 130.132 28.108 129.927 28.017C129.726 27.9223 129.486 27.875 129.205 27.875C128.83 27.875 128.514 27.9545 128.257 28.1136C127.999 28.2689 127.87 28.4773 127.87 28.7386C127.87 28.947 127.954 29.1231 128.12 29.267C128.287 29.411 128.573 29.5265 128.978 29.6136L130.558 29.9318C131.406 30.1061 132.039 30.3864 132.455 30.7727C132.872 31.1591 133.08 31.6667 133.08 32.2955C133.08 32.8674 132.912 33.3693 132.575 33.8011C132.241 34.233 131.783 34.5701 131.2 34.8125C130.62 35.0511 129.952 35.1705 129.194 35.1705C128.039 35.1705 127.118 34.9299 126.433 34.4489C125.751 33.964 125.351 33.3049 125.234 32.4716L127.615 32.3466C127.686 32.6989 127.861 32.9678 128.137 33.1534C128.414 33.3352 128.768 33.4261 129.2 33.4261C129.624 33.4261 129.965 33.3447 130.222 33.1818C130.484 33.0152 130.616 32.8011 130.62 32.5398C130.616 32.3201 130.524 32.1402 130.342 32C130.16 31.8561 129.88 31.7462 129.501 31.6705L127.99 31.3693C127.137 31.1989 126.503 30.9034 126.086 30.483C125.673 30.0625 125.467 29.5265 125.467 28.875C125.467 28.3144 125.618 27.8314 125.921 27.4261C126.228 27.0208 126.658 26.7083 127.211 26.4886C127.768 26.2689 128.419 26.1591 129.166 26.1591C130.268 26.1591 131.135 26.392 131.768 26.858C132.404 27.3239 132.776 27.9583 132.882 28.7614ZM138.308 35V26.2727H140.654V27.7955H140.745C140.904 27.2538 141.171 26.8447 141.546 26.5682C141.921 26.2879 142.353 26.1477 142.842 26.1477C142.963 26.1477 143.094 26.1553 143.234 26.1705C143.374 26.1856 143.497 26.2064 143.603 26.233V28.3807C143.49 28.3466 143.332 28.3163 143.132 28.2898C142.931 28.2633 142.747 28.25 142.58 28.25C142.224 28.25 141.906 28.3277 141.626 28.483C141.349 28.6345 141.13 28.8466 140.967 29.1193C140.808 29.392 140.728 29.7064 140.728 30.0625V35H138.308ZM148.426 35.1705C147.528 35.1705 146.755 34.9886 146.107 34.625C145.463 34.2576 144.967 33.7386 144.619 33.0682C144.27 32.3939 144.096 31.5966 144.096 30.6761C144.096 29.7784 144.27 28.9905 144.619 28.3125C144.967 27.6345 145.458 27.1061 146.09 26.7273C146.727 26.3485 147.473 26.1591 148.329 26.1591C148.905 26.1591 149.441 26.2519 149.937 26.4375C150.437 26.6193 150.873 26.8939 151.244 27.2614C151.619 27.6288 151.91 28.0909 152.119 28.6477C152.327 29.2008 152.431 29.8485 152.431 30.5909V31.2557H145.062V29.7557H150.153C150.153 29.4072 150.077 29.0985 149.926 28.8295C149.774 28.5606 149.564 28.3504 149.295 28.1989C149.03 28.0436 148.721 27.9659 148.369 27.9659C148.001 27.9659 147.676 28.0511 147.392 28.2216C147.111 28.3883 146.892 28.6136 146.732 28.8977C146.573 29.178 146.492 29.4905 146.488 29.8352V31.2614C146.488 31.6932 146.568 32.0663 146.727 32.3807C146.89 32.6951 147.119 32.9375 147.414 33.108C147.71 33.2784 148.06 33.3636 148.465 33.3636C148.734 33.3636 148.981 33.3258 149.204 33.25C149.427 33.1742 149.619 33.0606 149.778 32.9091C149.937 32.7576 150.058 32.572 150.142 32.3523L152.38 32.5C152.267 33.0379 152.034 33.5076 151.681 33.9091C151.333 34.3068 150.882 34.6174 150.329 34.8409C149.78 35.0606 149.145 35.1705 148.426 35.1705ZM157.954 35.1705C157.06 35.1705 156.291 34.9811 155.647 34.6023C155.007 34.2197 154.515 33.6894 154.17 33.0114C153.829 32.3333 153.659 31.553 153.659 30.6705C153.659 29.7765 153.831 28.9924 154.176 28.3182C154.524 27.6402 155.018 27.1117 155.659 26.733C156.299 26.3504 157.06 26.1591 157.943 26.1591C158.704 26.1591 159.371 26.2973 159.943 26.5739C160.515 26.8504 160.967 27.2386 161.301 27.7386C161.634 28.2386 161.818 28.8258 161.852 29.5H159.568C159.503 29.0644 159.333 28.714 159.056 28.4489C158.784 28.1799 158.426 28.0455 157.982 28.0455C157.607 28.0455 157.28 28.1477 156.999 28.3523C156.723 28.553 156.507 28.8466 156.352 29.233C156.196 29.6193 156.119 30.0871 156.119 30.6364C156.119 31.1932 156.195 31.6667 156.346 32.0568C156.501 32.447 156.719 32.7443 156.999 32.9489C157.28 33.1534 157.607 33.2557 157.982 33.2557C158.259 33.2557 158.507 33.1989 158.727 33.0852C158.95 32.9716 159.134 32.8068 159.278 32.5909C159.426 32.3712 159.522 32.108 159.568 31.8011H161.852C161.814 32.4678 161.632 33.0549 161.306 33.5625C160.984 34.0663 160.539 34.4602 159.971 34.7443C159.403 35.0284 158.731 35.1705 157.954 35.1705ZM168.998 31.2841V26.2727H171.419V35H169.095V33.4148H169.004C168.807 33.9261 168.479 34.3371 168.021 34.6477C167.566 34.9583 167.011 35.1136 166.356 35.1136C165.773 35.1136 165.259 34.9811 164.816 34.7159C164.373 34.4508 164.026 34.0739 163.776 33.5852C163.53 33.0966 163.405 32.5114 163.401 31.8295V26.2727H165.822V31.3977C165.826 31.9129 165.964 32.3201 166.237 32.6193C166.509 32.9186 166.875 33.0682 167.333 33.0682C167.625 33.0682 167.898 33.0019 168.151 32.8693C168.405 32.733 168.61 32.5322 168.765 32.267C168.924 32.0019 169.002 31.6742 168.998 31.2841ZM173.355 35V26.2727H175.701V27.7955H175.792C175.951 27.2538 176.218 26.8447 176.593 26.5682C176.968 26.2879 177.4 26.1477 177.889 26.1477C178.01 26.1477 178.141 26.1553 178.281 26.1705C178.421 26.1856 178.544 26.2064 178.65 26.233V28.3807C178.536 28.3466 178.379 28.3163 178.178 28.2898C177.978 28.2633 177.794 28.25 177.627 28.25C177.271 28.25 176.953 28.3277 176.673 28.483C176.396 28.6345 176.177 28.8466 176.014 29.1193C175.855 29.392 175.775 29.7064 175.775 30.0625V35H173.355ZM187.163 28.7614L184.947 28.8977C184.909 28.7083 184.828 28.5379 184.703 28.3864C184.578 28.2311 184.413 28.108 184.208 28.017C184.008 27.9223 183.767 27.875 183.487 27.875C183.112 27.875 182.795 27.9545 182.538 28.1136C182.28 28.2689 182.151 28.4773 182.151 28.7386C182.151 28.947 182.235 29.1231 182.401 29.267C182.568 29.411 182.854 29.5265 183.259 29.6136L184.839 29.9318C185.687 30.1061 186.32 30.3864 186.737 30.7727C187.153 31.1591 187.362 31.6667 187.362 32.2955C187.362 32.8674 187.193 33.3693 186.856 33.8011C186.523 34.233 186.064 34.5701 185.481 34.8125C184.901 35.0511 184.233 35.1705 183.475 35.1705C182.32 35.1705 181.4 34.9299 180.714 34.4489C180.032 33.964 179.633 33.3049 179.515 32.4716L181.896 32.3466C181.968 32.6989 182.142 32.9678 182.419 33.1534C182.695 33.3352 183.049 33.4261 183.481 33.4261C183.905 33.4261 184.246 33.3447 184.504 33.1818C184.765 33.0152 184.898 32.8011 184.901 32.5398C184.898 32.3201 184.805 32.1402 184.623 32C184.441 31.8561 184.161 31.7462 183.782 31.6705L182.271 31.3693C181.419 31.1989 180.784 30.9034 180.367 30.483C179.954 30.0625 179.748 29.5265 179.748 28.875C179.748 28.3144 179.9 27.8314 180.203 27.4261C180.509 27.0208 180.939 26.7083 181.492 26.4886C182.049 26.2689 182.701 26.1591 183.447 26.1591C184.549 26.1591 185.417 26.392 186.049 26.858C186.686 27.3239 187.057 27.9583 187.163 28.7614ZM192.829 35.1705C191.946 35.1705 191.183 34.983 190.539 34.608C189.899 34.2292 189.405 33.7027 189.056 33.0284C188.708 32.3504 188.534 31.5644 188.534 30.6705C188.534 29.7689 188.708 28.9811 189.056 28.3068C189.405 27.6288 189.899 27.1023 190.539 26.7273C191.183 26.3485 191.946 26.1591 192.829 26.1591C193.712 26.1591 194.473 26.3485 195.113 26.7273C195.757 27.1023 196.253 27.6288 196.602 28.3068C196.95 28.9811 197.124 29.7689 197.124 30.6705C197.124 31.5644 196.95 32.3504 196.602 33.0284C196.253 33.7027 195.757 34.2292 195.113 34.608C194.473 34.983 193.712 35.1705 192.829 35.1705ZM192.84 33.2955C193.242 33.2955 193.577 33.1818 193.846 32.9545C194.115 32.7235 194.318 32.4091 194.454 32.0114C194.594 31.6136 194.664 31.161 194.664 30.6534C194.664 30.1458 194.594 29.6932 194.454 29.2955C194.318 28.8977 194.115 28.5833 193.846 28.3523C193.577 28.1212 193.242 28.0057 192.84 28.0057C192.435 28.0057 192.094 28.1212 191.818 28.3523C191.545 28.5833 191.338 28.8977 191.198 29.2955C191.062 29.6932 190.994 30.1458 190.994 30.6534C190.994 31.161 191.062 31.6136 191.198 32.0114C191.338 32.4091 191.545 32.7235 191.818 32.9545C192.094 33.1818 192.435 33.2955 192.84 33.2955ZM205.96 28.7614L203.744 28.8977C203.706 28.7083 203.624 28.5379 203.499 28.3864C203.374 28.2311 203.21 28.108 203.005 28.017C202.804 27.9223 202.564 27.875 202.284 27.875C201.909 27.875 201.592 27.9545 201.335 28.1136C201.077 28.2689 200.948 28.4773 200.948 28.7386C200.948 28.947 201.032 29.1231 201.198 29.267C201.365 29.411 201.651 29.5265 202.056 29.6136L203.636 29.9318C204.484 30.1061 205.117 30.3864 205.534 30.7727C205.95 31.1591 206.159 31.6667 206.159 32.2955C206.159 32.8674 205.99 33.3693 205.653 33.8011C205.32 34.233 204.861 34.5701 204.278 34.8125C203.698 35.0511 203.03 35.1705 202.272 35.1705C201.117 35.1705 200.196 34.9299 199.511 34.4489C198.829 33.964 198.429 33.3049 198.312 32.4716L200.693 32.3466C200.765 32.6989 200.939 32.9678 201.215 33.1534C201.492 33.3352 201.846 33.4261 202.278 33.4261C202.702 33.4261 203.043 33.3447 203.301 33.1818C203.562 33.0152 203.695 32.8011 203.698 32.5398C203.695 32.3201 203.602 32.1402 203.42 32C203.238 31.8561 202.958 31.7462 202.579 31.6705L201.068 31.3693C200.215 31.1989 199.581 30.9034 199.164 30.483C198.751 30.0625 198.545 29.5265 198.545 28.875C198.545 28.3144 198.696 27.8314 198.999 27.4261C199.306 27.0208 199.736 26.7083 200.289 26.4886C200.846 26.2689 201.498 26.1591 202.244 26.1591C203.346 26.1591 204.213 26.392 204.846 26.858C205.482 27.3239 205.854 27.9583 205.96 28.7614Z" fill="white"/>
<defs>
<clipPath id="clip0_1_23">
<rect width="247.64" height="58" fill="white"/>
</clipPath>
<clipPath id="clip1_1_23">
<rect width="245.64" height="56" fill="white" transform="translate(1 1)"/>
</clipPath>
</defs>
</svg>
